# xmcd
#
# Track frame offsets: 
#        183
#        21925
#        61278
#        82523
#        92233
#        110753
#        128603
#        148120
#        168500
#        188778
#
# Disc length: 2995 seconds
#
# Revision: 5
# Processed by: cddbd v1.5.1PL0 Copyright (c) Steve Scherf et al.
# Submitted via: ExactAudioCopy v0.90b4
#
DISCID=800bb10a
DTITLE=Various Artist - Ultimate Blues Collection (Disk 2)
DYEAR=1990
DGENRE=Blues
TTITLE0=Taj Mahal - Leaving Trunk
TTITLE1=The Allman Brothers Band - Stormy Monday
TTITLE2=The Butterfield Blues Band - New Walkin' Blues
TTITLE3=Eric Clapton - Tribute To Elmore
TTITLE4=The Robert Cray Band - Smoking Gun
TTITLE5=Muddy Waters - Mannish Boy
TTITLE6=Georeg Thorogood - Who Do You Love
TTITLE7=Gary Moore - King Of The Blues
TTITLE8=John Lee Hooker And Bonnie Raitt - I'm In The Mood
TTITLE9=Rory Galagher - Ghost Blues
EXTD=YEAR: 1990
EXTT0=
EXTT1=
EXTT2=
EXTT3=
EXTT4=
EXTT5=
EXTT6=
EXTT7=
EXTT8=
EXTT9=
PLAYORDER=
